<?xml version="1.0" encoding="UTF-8" standalone="no"?>
<!DOCTYPE svg PUBLIC "-//W3C//DTD SVG 1.1//EN"
 "http://www.w3.org/Graphics/SVG/1.1/DTD/svg11.dtd">
<!-- Generated by graphviz version 2.44.1 (20200629.0846)
 -->
<!-- Title: dependencies Pages: 1 -->
<svg width="1163pt" height="284pt"
 viewBox="0.00 0.00 1163.00 284.00" xmlns="http://www.w3.org/2000/svg" xmlns:xlink="http://www.w3.org/1999/xlink">
<g id="graph0" class="graph" transform="scale(1 1) rotate(0) translate(4 280)">
<title>dependencies</title>
<polygon fill="white" stroke="transparent" points="-4,4 -4,-280 1159,-280 1159,4 -4,4"/>
<text text-anchor="start" x="556.51" y="-42.4" font-family="sans-serif" font-weight="bold" font-size="14.00">Legend</text>
<polygon fill="#ffffb3" stroke="transparent" points="343.5,-10 343.5,-30 363.5,-30 363.5,-10 343.5,-10"/>
<text text-anchor="start" x="367.13" y="-15.4" font-family="sans-serif" font-size="14.00"> &#160;Declarations</text>
<polygon fill="#8dd3c7" stroke="transparent" points="456.5,-10 456.5,-30 476.5,-30 476.5,-10 456.5,-10"/>
<text text-anchor="start" x="480.23" y="-15.4" font-family="sans-serif" font-size="14.00"> &#160;Module</text>
<polygon fill="#80b1d3" stroke="transparent" points="542.5,-10 542.5,-30 562.5,-30 562.5,-10 542.5,-10"/>
<text text-anchor="start" x="566.28" y="-15.4" font-family="sans-serif" font-size="14.00"> &#160;Bootstrap</text>
<polygon fill="#fdb462" stroke="transparent" points="639.5,-10 639.5,-30 659.5,-30 659.5,-10 639.5,-10"/>
<text text-anchor="start" x="663.17" y="-15.4" font-family="sans-serif" font-size="14.00"> &#160;Providers</text>
<polygon fill="#fb8072" stroke="transparent" points="735.5,-10 735.5,-30 755.5,-30 755.5,-10 735.5,-10"/>
<text text-anchor="start" x="759.23" y="-15.4" font-family="sans-serif" font-size="14.00"> &#160;Exports</text>
<g id="clust1" class="cluster">
<title>cluster_AppModule</title>
<polygon fill="none" stroke="black" stroke-dasharray="1,5" points="8,-70 8,-268 1147,-268 1147,-70 8,-70"/>
</g>
<g id="clust9" class="cluster">
<title>cluster_AppModule_imports</title>
<polygon fill="none" stroke="black" points="824,-78 824,-130 1139,-130 1139,-78 824,-78"/>
</g>
<g id="clust11" class="cluster">
<title>cluster_AppModule_bootstrap</title>
<polygon fill="none" stroke="black" points="547,-208 547,-260 671,-260 671,-208 547,-208"/>
</g>
<g id="clust2" class="cluster">
<title>cluster_AppModule_declarations</title>
<polygon fill="none" stroke="black" points="16,-78 16,-130 816,-130 816,-78 16,-78"/>
</g>
<!-- AgePipe -->
<g id="node1" class="node">
<title>AgePipe</title>
<polygon fill="#ffffb3" stroke="black" points="808.21,-122 743.79,-122 743.79,-86 808.21,-86 808.21,-122"/>
<text text-anchor="middle" x="776" y="-99.8" font-family="Times,serif" font-size="14.00">AgePipe</text>
</g>
<!-- AppModule -->
<g id="node7" class="node">
<title>AppModule</title>
<polygon fill="#8dd3c7" stroke="black" points="650.66,-187 647.66,-191 626.66,-191 623.66,-187 567.34,-187 567.34,-151 650.66,-151 650.66,-187"/>
<text text-anchor="middle" x="609" y="-164.8" font-family="Times,serif" font-size="14.00">AppModule</text>
</g>
<!-- AgePipe&#45;&gt;AppModule -->
<g id="edge1" class="edge">
<title>AgePipe&#45;&gt;AppModule</title>
<path fill="none" stroke="black" d="M776,-122.03C776,-138.4 776,-160 776,-160 776,-160 660.71,-160 660.71,-160"/>
<polygon fill="black" stroke="black" points="660.71,-156.5 650.71,-160 660.71,-163.5 660.71,-156.5"/>
</g>
<!-- AppComponent -->
<g id="node2" class="node">
<title>AppComponent</title>
<polygon fill="#ffffb3" stroke="black" points="725.94,-122 620.06,-122 620.06,-86 725.94,-86 725.94,-122"/>
<text text-anchor="middle" x="673" y="-99.8" font-family="Times,serif" font-size="14.00">AppComponent</text>
</g>
<!-- AppComponent&#45;&gt;AppModule -->
<g id="edge2" class="edge">
<title>AppComponent&#45;&gt;AppModule</title>
<path fill="none" stroke="black" d="M635.55,-122.11C635.55,-122.11 635.55,-140.99 635.55,-140.99"/>
<polygon fill="black" stroke="black" points="632.05,-140.99 635.55,-150.99 639.05,-140.99 632.05,-140.99"/>
</g>
<!-- FormComponent -->
<g id="node3" class="node">
<title>FormComponent</title>
<polygon fill="#ffffb3" stroke="black" points="601.67,-122 490.33,-122 490.33,-86 601.67,-86 601.67,-122"/>
<text text-anchor="middle" x="546" y="-99.8" font-family="Times,serif" font-size="14.00">FormComponent</text>
</g>
<!-- FormComponent&#45;&gt;AppModule -->
<g id="edge3" class="edge">
<title>FormComponent&#45;&gt;AppModule</title>
<path fill="none" stroke="black" d="M584.5,-122.11C584.5,-122.11 584.5,-140.99 584.5,-140.99"/>
<polygon fill="black" stroke="black" points="581,-140.99 584.5,-150.99 588,-140.99 581,-140.99"/>
</g>
<!-- HomepageComponent -->
<g id="node4" class="node">
<title>HomepageComponent</title>
<polygon fill="#ffffb3" stroke="black" points="471.97,-122 330.03,-122 330.03,-86 471.97,-86 471.97,-122"/>
<text text-anchor="middle" x="401" y="-99.8" font-family="Times,serif" font-size="14.00">HomepageComponent</text>
</g>
<!-- HomepageComponent&#45;&gt;AppModule -->
<g id="edge4" class="edge">
<title>HomepageComponent&#45;&gt;AppModule</title>
<path fill="none" stroke="black" d="M401,-122.03C401,-138.4 401,-160 401,-160 401,-160 556.91,-160 556.91,-160"/>
<polygon fill="black" stroke="black" points="556.91,-163.5 566.91,-160 556.91,-156.5 556.91,-163.5"/>
</g>
<!-- StudentComponent -->
<g id="node5" class="node">
<title>StudentComponent</title>
<polygon fill="#ffffb3" stroke="black" points="312.11,-122 187.89,-122 187.89,-86 312.11,-86 312.11,-122"/>
<text text-anchor="middle" x="250" y="-99.8" font-family="Times,serif" font-size="14.00">StudentComponent</text>
</g>
<!-- StudentComponent&#45;&gt;AppModule -->
<g id="edge5" class="edge">
<title>StudentComponent&#45;&gt;AppModule</title>
<path fill="none" stroke="black" d="M250,-122.11C250,-141.34 250,-169 250,-169 250,-169 557.12,-169 557.12,-169"/>
<polygon fill="black" stroke="black" points="557.12,-172.5 567.12,-169 557.12,-165.5 557.12,-172.5"/>
</g>
<!-- StudentListComponent -->
<g id="node6" class="node">
<title>StudentListComponent</title>
<polygon fill="#ffffb3" stroke="black" points="169.89,-122 24.11,-122 24.11,-86 169.89,-86 169.89,-122"/>
<text text-anchor="middle" x="97" y="-99.8" font-family="Times,serif" font-size="14.00">StudentListComponent</text>
</g>
<!-- StudentListComponent&#45;&gt;AppModule -->
<g id="edge6" class="edge">
<title>StudentListComponent&#45;&gt;AppModule</title>
<path fill="none" stroke="black" d="M97,-122.29C97,-144.21 97,-178 97,-178 97,-178 557.1,-178 557.1,-178"/>
<polygon fill="black" stroke="black" points="557.1,-181.5 567.1,-178 557.1,-174.5 557.1,-181.5"/>
</g>
<!-- AppComponent  -->
<g id="node10" class="node">
<title>AppComponent </title>
<polygon fill="#80b1d3" stroke="black" points="663.44,-252 554.56,-252 554.56,-216 663.44,-216 663.44,-252"/>
<text text-anchor="middle" x="609" y="-229.8" font-family="Times,serif" font-size="14.00">AppComponent </text>
</g>
<!-- AppModule&#45;&gt;AppComponent  -->
<g id="edge9" class="edge">
<title>AppModule&#45;&gt;AppComponent </title>
<path fill="none" stroke="black" stroke-dasharray="1,5" d="M609,-187.11C609,-187.11 609,-205.99 609,-205.99"/>
<polygon fill="black" stroke="black" points="605.5,-205.99 609,-215.99 612.5,-205.99 605.5,-205.99"/>
</g>
<!-- AngularMaterialModule -->
<g id="node8" class="node">
<title>AngularMaterialModule</title>
<polygon fill="#8dd3c7" stroke="black" points="1131.34,-122 1128.34,-126 1107.34,-126 1104.34,-122 978.66,-122 978.66,-86 1131.34,-86 1131.34,-122"/>
<text text-anchor="middle" x="1055" y="-99.8" font-family="Times,serif" font-size="14.00">AngularMaterialModule</text>
</g>
<!-- AngularMaterialModule&#45;&gt;AppModule -->
<g id="edge7" class="edge">
<title>AngularMaterialModule&#45;&gt;AppModule</title>
<path fill="none" stroke="black" d="M1055,-122.29C1055,-144.21 1055,-178 1055,-178 1055,-178 660.96,-178 660.96,-178"/>
<polygon fill="black" stroke="black" points="660.96,-174.5 650.96,-178 660.96,-181.5 660.96,-174.5"/>
</g>
<!-- AppRoutingModule -->
<g id="node9" class="node">
<title>AppRoutingModule</title>
<polygon fill="#8dd3c7" stroke="black" points="960.27,-122 957.27,-126 936.27,-126 933.27,-122 831.73,-122 831.73,-86 960.27,-86 960.27,-122"/>
<text text-anchor="middle" x="896" y="-99.8" font-family="Times,serif" font-size="14.00">AppRoutingModule</text>
</g>
<!-- AppRoutingModule&#45;&gt;AppModule -->
<g id="edge8" class="edge">
<title>AppRoutingModule&#45;&gt;AppModule</title>
<path fill="none" stroke="black" d="M896,-122.11C896,-141.34 896,-169 896,-169 896,-169 660.73,-169 660.73,-169"/>
<polygon fill="black" stroke="black" points="660.73,-165.5 650.73,-169 660.73,-172.5 660.73,-165.5"/>
</g>
</g>
</svg>
